HIERARCHY
ROOT Hips
{
	OFFSET 0.000000 0.000000 0.000000
	CHANNELS 6 Xposition Yposition Zposition Yrotation Xrotation Zrotation
	JOINT Chest
	{
		OFFSET 0.000000 -0.009281 11.569106
		CHANNELS 3 Yrotation Xrotation Zrotation
		JOINT Chest2
		{
			OFFSET -0.000000 0.016865 9.269641
			CHANNELS 3 Yrotation Xrotation Zrotation
			JOINT Chest3
			{
				OFFSET -0.000000 0.000001 8.374491
				CHANNELS 3 Yrotation Xrotation Zrotation
				JOINT Chest4
				{
					OFFSET -0.000000 0.000001 8.374493
					CHANNELS 3 Yrotation Xrotation Zrotation
					JOINT Neck
					{
						OFFSET -0.000000 0.000002 12.152554
						CHANNELS 3 Yrotation Xrotation Zrotation
						JOINT Head
						{
							OFFSET -0.000000 0.040101 7.802319
							CHANNELS 3 Yrotation Xrotation Zrotation
							End Site
							{
								OFFSET -0.000000 0.020947 14.853096
							}
						}
					}
					JOINT RightCollar
					{
						OFFSET 2.894404 0.000001 6.791374
						CHANNELS 3 Yrotation Xrotation Zrotation
						JOINT RightShoulder
						{
							OFFSET 13.574684 0.000001 0.000000
							CHANNELS 3 Yrotation Xrotation Zrotation
							JOINT RightElbow
							{
								OFFSET 23.923903 0.000002 0.000000
								CHANNELS 3 Yrotation Xrotation Zrotation
								JOINT RightWrist
								{
									OFFSET 19.846718 0.012767 0.000000
									CHANNELS 3 Yrotation Xrotation Zrotation
									End Site
									{
										OFFSET 14.973145 0.000001 0.000000
									}
								}
							}
						}
					}
					JOINT LeftCollar
					{
						OFFSET -2.894404 0.000001 6.791374
						CHANNELS 3 Yrotation Xrotation Zrotation
						JOINT LeftShoulder
						{
							OFFSET -13.574684 -0.000001 0.000000
							CHANNELS 3 Yrotation Xrotation Zrotation
							JOINT LeftElbow
							{
								OFFSET -23.923903 -0.000002 0.000000
								CHANNELS 3 Yrotation Xrotation Zrotation
								JOINT LeftWrist
								{
									OFFSET -19.846718 0.012763 0.000000
									CHANNELS 3 Yrotation Xrotation Zrotation
									End Site
									{
										OFFSET -14.973145 -0.000001 0.000000
									}
								}
							}
						}
					}
				}
			}
		}
	}
	JOINT RightHip
	{
		OFFSET 9.469263 0.004643 0.045487
		CHANNELS 3 Yrotation Xrotation Zrotation
		JOINT RightKnee
		{
			OFFSET 0.000000 0.002661 -40.478676
			CHANNELS 3 Yrotation Xrotation Zrotation
			JOINT RightAnkle
			{
				OFFSET 0.000000 0.049106 -35.224068
				CHANNELS 3 Yrotation Xrotation Zrotation
				JOINT RightToe
				{
					OFFSET -0.000001 12.539529 -6.151390
					CHANNELS 3 Yrotation Xrotation Zrotation
					End Site
					{
						OFFSET -0.000001 5.044994 -1.291870
					}
				}
			}
		}
	}
	JOINT LeftHip
	{
		OFFSET -9.469263 0.004641 0.045487
		CHANNELS 3 Yrotation Xrotation Zrotation
		JOINT LeftKnee
		{
			OFFSET 0.000000 0.002661 -40.478676
			CHANNELS 3 Yrotation Xrotation Zrotation
			JOINT LeftAnkle
			{
				OFFSET 0.000000 0.049106 -35.224068
				CHANNELS 3 Yrotation Xrotation Zrotation
				JOINT LeftToe
				{
					OFFSET -0.000001 12.539529 -6.151390
					CHANNELS 3 Yrotation Xrotation Zrotation
					End Site
					{
						OFFSET -0.000001 5.044994 -1.291870
					}
				}
			}
		}
	}
}
MOTION
Frames: 9
Frame Time: 0.016667
14.456180 4.702363 82.825500 -5.170603 -1.598199 -107.323732 -0.866002 -2.513435 0.287839 -0.362255 -1.128423 0.092662 -0.362254 -1.128423 0.092663 -0.271510 -0.846373 0.068827 1.272537 -17.558359 -3.387656 1.194244 3.565504 -5.818029 0.149351 25.966491 -2.524868 35.024732 41.365166 54.038473 -5.288509 3.275558 39.905247 -32.056489 0.127971 11.790533 -0.070568 20.248681 -2.094181 -32.867652 42.141540 -49.927201 3.995735 6.661204 -32.329358 41.330298 -5.126695 -37.375451 -0.633608 -9.053206 -3.533511 2.860563 -5.149820 -6.331073 -1.779672 8.112972 0.405927 -0.182431 -0.007401 0.012069 -0.202432 -9.971007 0.436750 0.535968 -2.961206 1.972656 -1.934742 6.812780 0.445890 0.126101 0.029465 -0.002090 
14.478567 4.685687 82.848671 -5.153526 -1.540624 -107.070927 -0.925845 -2.591520 0.115051 -0.388895 -1.164018 0.013092 -0.388895 -1.164018 0.013091 -0.291636 -0.873022 0.009080 1.379875 -17.768404 -3.317764 1.423173 3.180896 -5.649745 -1.342800 26.828245 -3.658504 31.810704 41.720523 53.460236 0.802817 2.285392 31.775505 -7.128767 -12.592410 -4.597601 0.398000 22.922960 -1.010214 -26.511632 38.775069 -47.336247 1.391179 8.178609 -27.672672 21.215548 -20.181472 -20.342962 -0.630962 -9.176791 -3.510705 2.865251 -4.904371 -6.600927 -1.728235 7.994470 0.440726 -0.180158 0.034963 0.003031 -0.189921 -9.976945 0.504214 0.542477 -2.834723 1.762451 -1.997077 6.647898 0.337008 0.135288 0.071417 0.001893 
14.495685 4.650969 82.897514 -5.238766 -1.462863 -106.858801 -1.064684 -2.760698 -0.076234 -0.445695 -1.248342 -0.081684 -0.445695 -1.248343 -0.081686 -0.334425 -0.936197 -0.062174 1.495724 -17.949141 -3.214861 1.677016 2.851015 -5.419111 -4.225939 27.680257 -6.277099 29.161612 39.206747 52.458001 2.905978 1.273535 25.603936 17.976841 -19.491543 -23.234748 1.821057 24.980638 1.052816 -22.053561 35.017567 -46.544403 -1.002230 11.207206 -24.312671 -8.667095 -32.761569 8.568301 -0.661883 -9.346461 -3.401809 2.843309 -4.737444 -6.936155 -1.628669 7.821959 0.497072 -0.208855 0.150468 -0.002162 -0.204774 -10.048398 0.628496 0.542114 -2.745590 1.541508 -2.165215 6.378394 0.195876 0.209110 0.199806 0.008768 
14.483169 4.594018 82.965637 -5.380478 -1.374248 -106.679222 -1.148456 -3.049972 -0.332789 -0.485826 -1.382994 -0.202221 -0.485826 -1.382993 -0.202225 -0.364810 -1.037085 -0.152760 1.567751 -18.035340 -3.091747 1.853314 2.694915 -5.167575 -6.573806 26.129435 -8.004140 27.636672 37.623557 51.076015 -2.374017 -4.300049 24.362083 33.956753 -15.360928 -30.890442 4.024050 25.123492 3.969748 -20.754271 33.379483 -47.537481 -2.467790 11.540304 -22.239709 -34.084901 -31.941523 36.008371 -0.708477 -9.481724 -3.318882 2.801469 -4.682641 -7.203684 -1.481688 7.621974 0.560417 -0.274447 0.291689 -0.005549 -0.216782 -10.098124 0.742786 0.544041 -2.766898 1.425152 -2.452629 6.011446 -0.037864 0.327802 0.410977 0.017035 
14.426319 4.536843 83.030411 -5.537159 -1.338235 -106.578975 -1.146426 -3.255476 -0.495223 -0.487256 -1.483013 -0.285340 -0.487256 -1.483012 -0.285338 -0.366114 -1.112033 -0.215174 1.589035 -18.119146 -3.055782 1.906852 2.540392 -5.093701 -7.169218 22.904961 -9.192046 29.377310 38.033615 52.453199 -6.570776 -6.941958 26.268831 32.697779 -14.567807 -28.013780 4.990160 24.041685 5.028107 -20.596676 33.344956 -47.793569 -0.185141 6.570268 -20.997605 -42.442826 -25.403142 46.064876 -0.721531 -9.552584 -3.325655 2.756903 -4.759095 -7.339950 -1.311232 7.449581 0.658374 -0.352018 0.413981 -0.002393 -0.199411 -10.134525 0.876365 0.570887 -2.839856 1.356658 -2.756650 5.687443 -0.259052 0.420410 0.551823 0.024330 
14.344655 4.507751 83.053520 -5.682620 -1.431000 -106.618242 -1.089403 -3.311329 -0.400556 -0.454680 -1.513704 -0.249840 -0.454680 -1.513703 -0.249837 -0.341609 -1.135093 -0.188491 1.536626 -18.297493 -3.157352 1.782119 2.206480 -5.296624 -7.870190 20.259063 -11.742991 34.533966 38.440711 57.092612 -5.590314 -5.621612 27.535406 27.242040 -15.341783 -24.284049 4.588919 23.490598 4.260685 -20.043993 33.235485 -47.009450 3.555776 1.264581 -20.567091 -36.630813 -26.633786 38.261586 -0.670441 -9.580913 -3.452873 2.748127 -4.907818 -7.247134 -1.172625 7.378291 0.759716 -0.402890 0.428290 0.003909 -0.113073 -10.230794 1.012001 0.583564 -2.880364 1.213398 -2.880989 5.592372 -0.241395 0.400341 0.486214 0.025850 
14.271209 4.522118 83.002243 -5.706792 -1.580427 -106.757462 -0.933500 -3.347488 -0.282559 -0.378165 -1.513060 -0.182341 -0.378165 -1.513061 -0.182342 -0.284059 -1.134683 -0.137682 1.295955 -18.498697 -3.186678 1.336854 1.824814 -5.427782 -9.973136 20.539846 -14.891978 38.719642 36.394574 60.494009 -3.061997 -3.555528 26.990553 29.169921 -16.203440 -26.797129 3.519835 24.838666 2.903066 -18.900163 32.129753 -45.524905 4.168928 0.376131 -20.411243 -32.632735 -31.747494 30.631732 -0.609548 -9.548722 -3.745105 2.786822 -4.941061 -6.843873 -1.127851 7.442604 0.797315 -0.384450 0.241465 0.009630 -0.023186 -10.301957 1.002693 0.563984 -2.869378 1.114386 -2.730984 5.795714 0.024035 0.248593 0.207187 0.018134 
14.190797 4.599136 82.895866 -5.531786 -1.625738 -106.934985 -0.703384 -3.417296 -0.359508 -0.269173 -1.518719 -0.205147 -0.269174 -1.518719 -0.205147 -0.202378 -1.138949 -0.154518 0.953185 -18.592536 -3.020640 0.765047 1.642002 -5.233804 -9.940958 23.523064 -13.841142 35.933687 34.408447 58.557445 -3.756538 -5.360276 25.827614 32.180689 -15.797010 -29.346683 2.382054 27.559325 2.622554 -17.371816 29.416819 -44.912100 2.188579 3.284774 -20.365189 -35.990316 -31.408410 35.709790 -0.614925 -9.446754 -4.132062 2.867401 -4.773843 -6.277063 -1.205900 7.627732 0.799230 -0.299762 -0.085138 -0.018258 -0.023181 -10.125558 0.890415 0.540362 -2.847317 1.310341 -2.443954 6.146517 0.187265 0.038224 -0.199460 0.011280 
14.113795 4.670462 82.812485 -5.239837 -1.598151 -107.024720 -0.661302 -3.465307 -0.350221 -0.254885 -1.510536 -0.183749 -0.254885 -1.510536 -0.183748 -0.191606 -1.132826 -0.138433 0.977006 -18.579875 -2.997917 0.815720 1.666802 -5.184500 -6.378589 26.995904 -8.360343 27.624466 33.556361 52.027894 -5.734951 -8.325917 25.402599 32.691304 -16.149497 -28.962420 2.565977 25.996989 2.700960 -17.272852 30.403334 -45.693194 0.857462 5.238949 -19.985538 -38.973879 -28.355045 41.942194 -0.639293 -9.195935 -4.398245 2.944702 -4.576020 -5.971842 -1.329402 7.820395 0.833690 -0.179279 -0.426776 -0.051965 -0.061577 -9.844035 0.765156 0.543263 -2.814322 1.588004 -2.169962 6.513791 0.203491 -0.135346 -0.557773 0.013391 
